<svg width="158" height="88" viewBox="0 0 158 88" fill="none" xmlns="http://www.w3.org/2000/svg">
<path d="M114.216 88C138.397 88 158 68.3005 158 44C158 19.6995 138.397 0 114.216 0C90.0348 0 70.4321 19.6995 70.4321 44C70.4321 68.3005 90.0348 88 114.216 88Z" fill="url(#paint0_linear_48_31)"/>
<g filter="url(#filter0_d_48_31)">
<path d="M19.9466 36.5308C19.4186 36.5308 18.9719 36.9797 18.9719 37.5104V39.3471C17.5097 37.6328 15.357 36.5308 12.9201 36.5308C8.5742 36.5308 5 40.1226 5 44.5308C5 48.9389 8.5742 52.5308 12.9607 52.5308C15.3977 52.5308 17.5503 51.4287 19.0125 49.7144V51.5512C19.0125 52.0818 19.4593 52.5308 19.9873 52.5308C20.5153 52.5308 20.962 52.0818 20.962 51.5512V37.5104C20.9214 36.9797 20.4746 36.5308 19.9466 36.5308ZM12.9607 50.6124C9.63021 50.6124 6.90895 47.8777 6.90895 44.5308C6.90895 41.1838 9.63021 38.4491 12.9607 38.4491C16.2912 38.4491 19.0125 41.1838 19.0125 44.5308C19.0125 47.8777 16.2912 50.6124 12.9607 50.6124Z" fill="white"/>
<path d="M44.8848 36.5308C40.4983 36.5308 36.9241 40.1226 36.9241 44.5308C36.9241 48.9389 40.4983 52.5308 44.8848 52.5308C47.5654 52.5308 49.9212 51.2246 51.3427 49.1838C51.3833 49.143 51.3833 49.1022 51.4239 49.1022C51.5458 48.9389 51.5864 48.7348 51.5864 48.4899C51.5458 47.9593 51.0584 47.5512 50.5304 47.6328C50.2055 47.6736 49.9212 47.8777 49.7587 48.1226C48.6621 49.6328 46.875 50.6124 44.8848 50.6124C41.8792 50.6124 39.361 48.4083 38.9143 45.5104H51.8707C52.3987 45.5104 52.8455 45.0614 52.8455 44.5308C52.8455 40.1226 49.2713 36.5308 44.8848 36.5308ZM38.9143 43.592C39.361 40.694 41.8792 38.4899 44.8848 38.4899C47.8904 38.4899 50.4085 40.694 50.8553 43.592H38.9143Z" fill="white"/>
<path d="M36.6398 40.8981C37.0053 40.5308 37.0459 39.9185 36.721 39.4695C35.2588 37.6736 33.025 36.5308 30.5474 36.5308C28.151 36.5308 25.9984 37.592 24.5362 39.3063H24.4956V37.592C24.4956 37.1022 24.1707 36.694 23.7239 36.5716C23.1147 36.4491 22.5867 36.9389 22.5867 37.5104V51.5104C22.5867 52.0001 22.9116 52.4083 23.3584 52.5308C23.9676 52.6532 24.4956 52.1634 24.4956 51.592V49.592V45.5512V44.0818C24.7393 40.9389 27.3387 38.4899 30.5068 38.4899C32.4563 38.4899 34.2028 39.4287 35.2994 40.8573C35.6244 41.2655 36.2336 41.2655 36.6398 40.8981Z" fill="white"/>
<path d="M67.7921 45.5104C67.3453 48.4083 64.8271 50.6124 61.8215 50.6124C59.8314 50.6124 58.0443 49.6328 56.9476 48.1226C56.7852 47.7961 56.4196 47.592 56.0135 47.6328C55.6479 47.6736 55.323 47.9185 55.2012 48.2859C55.0793 48.5716 55.1605 48.8981 55.2824 49.1022C55.323 49.143 55.323 49.1838 55.3636 49.1838C56.8258 51.2246 59.1815 52.5308 61.8215 52.5308C65.8831 52.5308 69.2543 49.4695 69.7416 45.5104C69.7416 45.3471 69.7823 45.2246 69.7823 45.0614V45.0206C69.7823 44.8573 69.7823 44.694 69.7823 44.5308C69.7823 44.5308 69.7823 44.5308 69.7823 44.4899C69.7823 43.9593 69.3355 43.5512 68.8075 43.5512H55.851C56.2978 40.6532 58.816 38.4491 61.8215 38.4491C63.8117 38.4491 65.5988 39.4287 66.6955 40.9389C66.8579 41.2655 67.2235 41.4695 67.6296 41.4287C67.9952 41.3879 68.3201 41.143 68.4419 40.7757C68.5638 40.4899 68.4826 40.1634 68.3607 39.9593C68.3201 39.9185 68.3201 39.8777 68.2795 39.8777C66.8173 37.8369 64.4616 36.5308 61.8215 36.5308C57.76 36.5308 54.3888 39.592 53.9015 43.5512C53.9015 43.7144 53.8608 43.8369 53.8608 44.0002V44.041C53.8608 44.2042 53.8608 44.3675 53.8608 44.5308C53.8608 45.0614 54.3076 45.4695 54.8356 45.4695L67.7921 45.5104Z" fill="white"/>
</g>
<path d="M79.3677 36.5308C74.9812 36.5308 71.407 40.1226 71.407 44.5308C71.407 48.9389 74.9812 52.5308 79.3677 52.5308C82.0483 52.5308 84.4041 51.2246 85.8256 49.1838C85.8662 49.143 85.8662 49.1022 85.9068 49.1022C86.0287 48.9389 86.0693 48.7348 86.0693 48.4899C86.0287 47.9593 85.5413 47.5512 85.0133 47.6328C84.6884 47.6736 84.4041 47.8777 84.2416 48.1226C83.145 49.6328 81.3579 50.6124 79.3677 50.6124C76.3621 50.6124 73.8439 48.4083 73.3972 45.5104H86.3536C86.8816 45.5104 87.3284 45.0614 87.3284 44.5308C87.3284 40.1226 83.7542 36.5308 79.3677 36.5308ZM73.3972 43.592C73.8439 40.694 76.3621 38.4899 79.3677 38.4899C82.3733 38.4899 84.8915 40.694 85.3382 43.592H73.3972Z" fill="white"/>
<path d="M103.331 40.898C103.697 40.5307 103.737 39.9184 103.412 39.4694C101.95 37.6735 99.7162 36.5307 97.2387 36.5307C94.8423 36.5307 92.6897 37.5919 91.2275 39.3062H91.1869V37.5511C91.1869 37.0613 90.862 36.6531 90.4152 36.5307C89.806 36.4082 89.278 36.898 89.278 37.4694V51.4694C89.278 51.9592 89.6029 52.3674 90.0497 52.4898C90.6589 52.6123 91.1869 52.1225 91.1869 51.5511V49.5511V45.5102V44.0817H91.2275C91.4712 40.9388 94.0706 38.4898 97.2387 38.4898C99.1882 38.4898 100.935 39.4286 102.031 40.8572C102.356 41.2653 102.966 41.2653 103.331 40.898Z" fill="white"/>
<path d="M104.631 37.5102V57.3469C104.631 57.8776 105.078 58.3265 105.606 58.3265C106.134 58.3265 106.58 57.8776 106.58 57.3469V49.7551C108.042 51.4694 110.195 52.5714 112.632 52.5714C117.019 52.5714 120.593 48.9796 120.593 44.5714C120.593 40.1633 117.019 36.5714 112.632 36.5714C110.195 36.5714 108.042 37.6735 106.58 39.3878V37.551C106.58 37.0204 106.134 36.5714 105.606 36.5714C105.037 36.5306 104.631 36.9796 104.631 37.5102ZM106.54 44.5306C106.54 41.1837 109.261 38.449 112.591 38.449C115.922 38.449 118.643 41.1837 118.643 44.5306C118.643 47.8776 115.922 50.6122 112.591 50.6122C109.261 50.6122 106.54 47.9184 106.54 44.5306Z" fill="white"/>
<defs>
<filter id="filter0_d_48_31" x="0" y="33.5308" width="74.7822" height="26.019" filterUnits="userSpaceOnUse" color-interpolation-filters="sRGB">
<feFlood flood-opacity="0" result="BackgroundImageFix"/>
<feColorMatrix in="SourceAlpha" type="matrix" values="0 0 0 0 0 0 0 0 0 0 0 0 0 0 0 0 0 0 127 0" result="hardAlpha"/>
<feOffset dy="2"/>
<feGaussianBlur stdDeviation="2.5"/>
<feComposite in2="hardAlpha" operator="out"/>
<feColorMatrix type="matrix" values="0 0 0 0 0.130035 0 0 0 0 0.291667 0 0 0 0 0.272271 0 0 0 0.59 0"/>
<feBlend mode="normal" in2="BackgroundImageFix" result="effect1_dropShadow_48_31"/>
<feBlend mode="normal" in="SourceGraphic" in2="effect1_dropShadow_48_31" result="shape"/>
</filter>
<linearGradient id="paint0_linear_48_31" x1="136.097" y1="5.88767" x2="91.9877" y2="81.9117" gradientUnits="userSpaceOnUse">
<stop stop-color="#229978"/>
<stop offset="1" stop-color="#00A0CC"/>
</linearGradient>
</defs>
</svg>
