<svg width="186" height="137" viewBox="0 0 186 137" fill="none" xmlns="http://www.w3.org/2000/svg">
<path d="M136.403 44.7218V40.4701C141.641 37.3207 145.03 31.4943 145.03 25.1954V17.6368C145.03 7.87356 137.327 0 127.777 0C118.226 0 110.369 7.87356 110.369 17.6368V25.1954C110.369 31.3368 113.45 37.0057 118.688 40.1552V44.7218C116.377 45.3517 114.22 46.2966 112.064 47.5563C108.675 39.5253 100.818 33.8563 91.7298 33.8563C82.7951 33.8563 75.2469 39.2103 71.7038 47.0839C69.7012 46.1391 67.6986 45.1943 65.696 44.7218V40.4701C70.9336 37.3207 74.3226 31.4943 74.3226 25.1954V17.6368C74.3226 7.87356 66.6203 0 57.0694 0C47.5186 0 39.8163 7.87356 39.8163 17.6368V25.1954C39.8163 31.3368 42.8972 37.0057 48.1348 40.1552V44.7218C34.2706 48.8161 24.8738 61.5713 24.8738 76.3736C24.8738 77.6333 25.9522 78.7356 27.1845 78.7356H72.7821C72.9362 78.7356 73.0902 78.7356 73.2443 78.7356C75.0928 81.7276 77.7116 84.2471 80.7925 86.1368V93.223C62.461 98.2621 49.9833 115.111 49.9833 134.638C49.9833 135.898 51.0616 137 52.294 137H131.628C132.86 137 133.938 135.898 133.938 134.638C133.938 115.269 120.844 98.1046 102.667 93.223V86.4517C105.902 84.5621 108.521 82.0425 110.523 78.8931H157.815C159.048 78.8931 160.126 77.7908 160.126 76.531C159.972 61.7287 150.113 48.6586 136.403 44.7218ZM29.4952 74.169C30.4195 61.8862 39.0461 51.808 50.9076 48.9736C51.9859 48.6586 52.7562 47.7138 52.7562 46.6115V38.7379C52.7562 37.7931 52.294 37.0057 51.5238 36.6908C47.2105 34.4862 44.4377 30.077 44.4377 25.1954V17.6368C44.4377 10.5506 50.1374 4.72414 57.0694 4.72414C64.0015 4.72414 69.7012 10.5506 69.7012 17.6368V25.1954C69.7012 30.077 66.7743 34.6437 62.461 36.8483C61.6908 37.1632 61.0746 38.108 61.0746 39.0529V46.6115C61.0746 47.7138 61.8449 48.6586 62.9232 48.9736C65.542 49.6034 68.0067 50.5483 70.3174 51.808C70.0093 53.3828 69.8553 54.9575 69.8553 56.6897V66.7678C69.8553 69.2874 70.3174 71.8069 71.0876 74.169H29.4952ZM99.278 82.8299C98.5078 83.1448 97.8916 84.0897 97.8916 85.0345V95.1126C97.8916 96.2149 98.6618 97.1598 99.7402 97.4747C116.069 101.097 128.085 115.584 129.163 132.433H54.6047C55.529 115.584 67.2365 101.411 83.5653 97.6322C84.6437 97.3172 85.4139 96.3724 85.4139 95.2701V84.877C85.4139 83.9322 84.9518 83.1448 84.1815 82.8299C78.1737 79.8379 74.4766 73.6965 74.4766 66.9253V56.8471C74.4766 46.9264 82.333 39.0529 91.8838 39.0529C101.435 39.0529 109.291 47.0839 109.291 56.8471V66.7678C109.291 73.5391 105.44 79.8379 99.278 82.8299ZM112.68 74.169C113.45 71.8069 113.912 69.2874 113.912 66.7678V56.6897C113.912 55.2724 113.758 53.6977 113.45 52.4379C115.915 50.8632 118.688 49.7609 121.461 49.131C122.539 48.8161 123.309 47.8713 123.309 46.769V38.8954C123.309 37.9506 122.847 37.1632 122.077 36.8483C117.764 34.6437 114.991 30.2345 114.991 25.3529V17.7943C114.991 10.708 120.69 4.88161 127.622 4.88161C134.555 4.88161 140.254 10.708 140.254 17.7943V25.3529C140.254 30.2345 137.327 34.8011 133.014 37.0057C132.244 37.3207 131.628 38.2655 131.628 39.2103V46.769C131.628 47.8713 132.398 48.8161 133.476 49.131C145.338 51.808 154.118 62.2011 155.197 74.3264L112.68 74.169Z" fill="#0F5875"/>
<path d="M31.9182 60.5C11.9997 67.2633 3 79.2104 3 90C3 104.642 20.1604 118.896 53.521 124.895" stroke="#0F5875" stroke-width="5"/>
<path d="M153.386 60C173.153 66.8269 183.5 78.8863 183.5 89.7773C183.5 104.557 165.055 118.945 131.949 125" stroke="#0F5875" stroke-width="5"/>
</svg>
