<svg width="189" height="189" viewBox="0 0 189 189" fill="none" xmlns="http://www.w3.org/2000/svg">
<path d="M174.965 99.1782H160.931V75.7871C160.931 75.0427 160.635 74.3287 160.109 73.8023C159.582 73.2759 158.868 72.9802 158.124 72.9802H114.149V49.5891C114.149 48.8447 113.853 48.1307 113.326 47.6043C112.8 47.0779 112.086 46.7822 111.342 46.7822H15.9059C15.1615 46.7822 14.4475 47.0779 13.9211 47.6043C13.3947 48.1307 13.099 48.8447 13.099 49.5891V137.54C13.099 138.284 13.3947 138.998 13.9211 139.524C14.4475 140.051 15.1615 140.347 15.9059 140.347H37.276C37.6582 143.854 39.3221 147.097 41.9486 149.453C44.575 151.809 47.979 153.111 51.5072 153.111C55.0354 153.111 58.4393 151.809 61.0658 149.453C63.6922 147.097 65.3562 143.854 65.7383 140.347H128.52C128.902 143.859 130.568 147.106 133.198 149.465C135.828 151.824 139.237 153.129 142.77 153.129C146.303 153.129 149.711 151.824 152.341 149.465C154.971 147.106 156.637 143.859 157.02 140.347H174.965C175.71 140.347 176.424 140.051 176.95 139.524C177.477 138.998 177.772 138.284 177.772 137.54V101.985C177.772 101.241 177.477 100.527 176.95 100C176.424 99.4739 175.71 99.1782 174.965 99.1782ZM51.4604 147.532C49.7333 147.54 48.043 147.034 46.6036 146.08C45.1643 145.125 44.0408 143.765 43.3756 142.171C42.7104 140.577 42.5334 138.822 42.8672 137.127C43.2009 135.432 44.0303 133.875 45.2503 132.653C46.4702 131.43 48.0256 130.597 49.7194 130.26C51.4132 129.923 53.1691 130.096 54.7643 130.758C56.3596 131.419 57.7224 132.54 58.68 133.977C59.6376 135.414 60.1469 137.104 60.1432 138.831C60.1384 141.121 59.233 143.317 57.6223 144.945C56.0117 146.574 53.8252 147.503 51.5353 147.532H51.4604ZM51.4604 124.497C48.3877 124.516 45.4022 125.521 42.9431 127.363C40.4841 129.206 38.6813 131.789 37.8 134.733H18.7129V52.396H108.535V134.733H65.2331C64.3525 131.781 62.5448 129.192 60.0777 127.348C57.6105 125.505 54.6151 124.505 51.5353 124.497H51.4604ZM142.76 147.532C141.035 147.532 139.348 147.02 137.914 146.061C136.479 145.102 135.362 143.739 134.702 142.145C134.043 140.55 133.871 138.796 134.209 137.104C134.547 135.412 135.38 133.858 136.601 132.639C137.822 131.421 139.378 130.592 141.071 130.257C142.764 129.923 144.517 130.098 146.111 130.761C147.704 131.424 149.064 132.545 150.02 133.981C150.976 135.418 151.484 137.105 151.481 138.831C151.476 141.14 150.555 143.354 148.92 144.985C147.285 146.616 145.07 147.532 142.76 147.532ZM172.158 134.733H156.496C155.599 131.802 153.785 129.236 151.32 127.414C148.856 125.591 145.872 124.607 142.807 124.607C139.742 124.607 136.758 125.591 134.294 127.414C131.83 129.236 130.016 131.802 129.119 134.733H114.149V78.5941H155.317V101.985C155.317 102.73 155.613 103.444 156.139 103.97C156.665 104.496 157.379 104.792 158.124 104.792H172.158V134.733Z" fill="#0F5875"/>
<path d="M30.8762 80.4654H87.9505L78.5941 89.8218C78.3183 90.0788 78.0971 90.3886 77.9437 90.733C77.7903 91.0773 77.7078 91.449 77.7011 91.8259C77.6945 92.2027 77.7638 92.5771 77.905 92.9266C78.0461 93.2761 78.2563 93.5936 78.5228 93.8602C78.7893 94.1267 79.1068 94.3368 79.4564 94.478C79.8059 94.6192 80.1802 94.6885 80.5571 94.6819C80.934 94.6752 81.3057 94.5927 81.65 94.4393C81.9943 94.2859 82.3042 94.0647 82.5612 93.7889L95.1549 81.1952C95.6806 80.6689 95.9758 79.9554 95.9758 79.2116C95.9758 78.4678 95.6806 77.7543 95.1549 77.228L82.5612 64.6343C82.2958 64.3738 81.9817 64.1681 81.6368 64.029C81.2919 63.8899 80.923 63.8201 80.5512 63.8236C80.1793 63.8271 79.8118 63.9038 79.4695 64.0493C79.1273 64.1948 78.8171 64.4063 78.5566 64.6717C78.2961 64.9371 78.0905 65.2512 77.9514 65.5961C77.8123 65.941 77.7425 66.3099 77.746 66.6817C77.7494 67.0536 77.8261 67.4211 77.9716 67.7633C78.1172 68.1056 78.3287 68.4158 78.5941 68.6762L84.7693 74.8515H30.8762C30.1318 74.8515 29.4178 75.1472 28.8914 75.6736C28.365 76.2 28.0693 76.914 28.0693 77.6584C28.0693 78.4029 28.365 79.1168 28.8914 79.6432C29.4178 80.1696 30.1318 80.4654 30.8762 80.4654Z" fill="#0F5875"/>
<path d="M91.6931 107.599C91.6931 106.855 91.3973 106.141 90.8709 105.614C90.3445 105.088 89.6306 104.792 88.8861 104.792H31.999L41.1683 95.6415C41.4276 95.3785 41.6325 95.0671 41.7714 94.725C41.9103 94.3828 41.9804 94.0167 41.9778 93.6474C41.9752 93.2782 41.8999 92.9131 41.7562 92.5729C41.6125 92.2328 41.4032 91.9243 41.1402 91.665C40.8773 91.4057 40.5659 91.2008 40.2237 91.0619C39.8816 90.923 39.5154 90.8529 39.1462 90.8555C38.7769 90.8581 38.4118 90.9334 38.0717 91.0771C37.7315 91.2208 37.423 91.4301 37.1638 91.6931L24.57 104.287C24.0444 104.813 23.7491 105.527 23.7491 106.27C23.7491 107.014 24.0444 107.728 24.57 108.254L37.1638 120.848C37.6923 121.379 38.4102 121.678 39.1594 121.68C39.9087 121.682 40.6279 121.386 41.159 120.857C41.69 120.329 41.9893 119.611 41.9911 118.861C41.9928 118.112 41.6969 117.393 41.1683 116.862L34.6937 110.406H88.961C89.6924 110.386 90.3873 110.082 90.8976 109.558C91.4079 109.034 91.6933 108.331 91.6931 107.599Z" fill="#0F5875"/>
</svg>
