<svg width="150" height="150" viewBox="0 0 150 150" fill="none" xmlns="http://www.w3.org/2000/svg">
<path d="M95.25 66.75V39.87C96.1079 39.3747 96.7784 38.6102 97.1575 37.695C97.5365 36.7798 97.603 35.765 97.3467 34.8082C97.0903 33.8513 96.5253 33.0058 95.7394 32.4028C94.9535 31.7998 93.9906 31.4729 93 31.4729C92.0094 31.4729 91.0465 31.7998 90.2606 32.4028C89.4747 33.0058 88.9097 33.8513 88.6533 34.8082C88.3969 35.765 88.4635 36.7798 88.8425 37.695C89.2216 38.6102 89.8921 39.3747 90.75 39.87V69C90.75 69.5967 90.9871 70.169 91.409 70.591C91.831 71.0129 92.4033 71.25 93 71.25H98.25V93.75H91.5C90.9033 93.75 90.331 93.987 89.909 94.409C89.4871 94.831 89.25 95.4033 89.25 96V120.63C88.3921 121.125 87.7216 121.89 87.3425 122.805C86.9635 123.72 86.8969 124.735 87.1533 125.692C87.4097 126.649 87.9747 127.494 88.7606 128.097C89.5465 128.7 90.5094 129.027 91.5 129.027C92.4906 129.027 93.4535 128.7 94.2394 128.097C95.0253 127.494 95.5903 126.649 95.8467 125.692C96.1031 124.735 96.0365 123.72 95.6575 122.805C95.2784 121.89 94.6079 121.125 93.75 120.63V98.25H110.13C110.625 99.1079 111.39 99.7784 112.305 100.157C113.22 100.537 114.235 100.603 115.192 100.347C116.149 100.09 116.994 99.5253 117.597 98.7394C118.2 97.9535 118.527 96.9906 118.527 96C118.527 95.0094 118.2 94.0465 117.597 93.2606C116.994 92.4747 116.149 91.9097 115.192 91.6533C114.235 91.3969 113.22 91.4635 112.305 91.8425C111.39 92.2216 110.625 92.8921 110.13 93.75H102.75V71.25H120.63C121.125 72.1079 121.89 72.7784 122.805 73.1575C123.72 73.5365 124.735 73.6031 125.692 73.3467C126.649 73.0903 127.494 72.5253 128.097 71.7394C128.7 70.9535 129.027 69.9906 129.027 69C129.027 68.0094 128.7 67.0465 128.097 66.2606C127.494 65.4747 126.649 64.9097 125.692 64.6533C124.735 64.3969 123.72 64.4635 122.805 64.8425C121.89 65.2216 121.125 65.8921 120.63 66.75H95.25Z" fill="#0F5875"/>
<path d="M142.5 46.8H118.815V16.5C118.815 15.9033 118.578 15.331 118.156 14.909C117.734 14.4871 117.162 14.25 116.565 14.25H33.435C32.8383 14.25 32.266 14.4871 31.844 14.909C31.4221 15.331 31.185 15.9033 31.185 16.5V46.8H7.5C7.20453 46.8 6.91194 46.8582 6.63896 46.9713C6.36598 47.0843 6.11794 47.2501 5.90901 47.459C5.70008 47.6679 5.53434 47.916 5.42127 48.189C5.3082 48.4619 5.25 48.7545 5.25 49.05V81.675C5.25 82.2717 5.48705 82.844 5.90901 83.266C6.33097 83.688 6.90326 83.925 7.5 83.925H16.845V115.77C16.845 116.367 17.0821 116.939 17.504 117.361C17.926 117.783 18.4983 118.02 19.095 118.02H40.5V138C40.5 138.597 40.7371 139.169 41.159 139.591C41.581 140.013 42.1533 140.25 42.75 140.25H107.25C107.847 140.25 108.419 140.013 108.841 139.591C109.263 139.169 109.5 138.597 109.5 138V118.02H130.905C131.502 118.02 132.074 117.783 132.496 117.361C132.918 116.939 133.155 116.367 133.155 115.77V83.925H142.5C143.097 83.925 143.669 83.688 144.091 83.266C144.513 82.844 144.75 82.2717 144.75 81.675V49.05C144.75 48.7545 144.692 48.4619 144.579 48.189C144.466 47.916 144.3 47.6679 144.091 47.459C143.882 47.2501 143.634 47.0843 143.361 46.9713C143.088 46.8582 142.795 46.8 142.5 46.8ZM42.75 113.52H21.345V81.675C21.345 81.0783 21.1079 80.506 20.686 80.084C20.264 79.6621 19.6917 79.425 19.095 79.425H9.75V51.3H33.435C34.0317 51.3 34.604 51.063 35.026 50.641C35.4479 50.219 35.685 49.6467 35.685 49.05V18.75H72.75V135.75H45V115.77C45 115.173 44.7629 114.601 44.341 114.179C43.919 113.757 43.3467 113.52 42.75 113.52ZM140.25 79.425H130.905C130.308 79.425 129.736 79.6621 129.314 80.084C128.892 80.506 128.655 81.0783 128.655 81.675V113.52H107.25C106.653 113.52 106.081 113.757 105.659 114.179C105.237 114.601 105 115.173 105 115.77V135.75H77.25V18.75H114.315V49.05C114.315 49.6467 114.552 50.219 114.974 50.641C115.396 51.063 115.968 51.3 116.565 51.3H140.25V79.425Z" fill="#0F5875"/>
<path d="M56.25 120.63C55.3921 121.125 54.7216 121.89 54.3425 122.805C53.9635 123.72 53.8969 124.735 54.1533 125.692C54.4097 126.649 54.9747 127.494 55.7606 128.097C56.5465 128.7 57.5094 129.027 58.5 129.027C59.4906 129.027 60.4535 128.7 61.2394 128.097C62.0253 127.494 62.5903 126.649 62.8467 125.692C63.1031 124.735 63.0365 123.72 62.6575 122.805C62.2784 121.89 61.6079 121.125 60.75 120.63V96C60.75 95.4033 60.5129 94.831 60.091 94.409C59.669 93.987 59.0967 93.75 58.5 93.75H51.75V71.25H57C57.5967 71.25 58.169 71.0129 58.591 70.591C59.0129 70.169 59.25 69.5967 59.25 69V39.87C60.1079 39.3747 60.7784 38.6102 61.1575 37.695C61.5365 36.7798 61.6031 35.765 61.3467 34.8082C61.0903 33.8513 60.5253 33.0058 59.7394 32.4028C58.9535 31.7998 57.9906 31.4729 57 31.4729C56.0094 31.4729 55.0465 31.7998 54.2606 32.4028C53.4747 33.0058 52.9097 33.8513 52.6533 34.8082C52.3969 35.765 52.4635 36.7798 52.8425 37.695C53.2216 38.6102 53.8921 39.3747 54.75 39.87V66.75H29.37C28.8747 65.8921 28.1102 65.2216 27.195 64.8425C26.2798 64.4635 25.265 64.3969 24.3082 64.6533C23.3513 64.9097 22.5058 65.4747 21.9028 66.2606C21.2998 67.0465 20.9729 68.0094 20.9729 69C20.9729 69.9906 21.2998 70.9535 21.9028 71.7394C22.5058 72.5253 23.3513 73.0903 24.3082 73.3467C25.265 73.6031 26.2798 73.5365 27.195 73.1575C28.1102 72.7784 28.8747 72.1079 29.37 71.25H47.25V93.75H39.87C39.3747 92.8921 38.6102 92.2216 37.695 91.8425C36.7798 91.4635 35.765 91.3969 34.8082 91.6533C33.8513 91.9097 33.0058 92.4747 32.4028 93.2606C31.7998 94.0465 31.4729 95.0094 31.4729 96C31.4729 96.9906 31.7998 97.9535 32.4028 98.7394C33.0058 99.5253 33.8513 100.09 34.8082 100.347C35.765 100.603 36.7798 100.537 37.695 100.157C38.6102 99.7784 39.3747 99.1079 39.87 98.25H56.25V120.63Z" fill="#0F5875"/>
</svg>
