<svg width="189" height="189" viewBox="0 0 189 189" fill="none" xmlns="http://www.w3.org/2000/svg">
<path d="M15.9059 99.1782H173.094C173.839 99.1782 174.552 98.8825 175.079 98.3561C175.605 97.8297 175.901 97.1157 175.901 96.3713C175.901 95.6268 175.605 94.9129 175.079 94.3865C174.552 93.8601 173.839 93.5644 173.094 93.5644H15.9059C15.1615 93.5644 14.4475 93.8601 13.9211 94.3865C13.3947 94.9129 13.099 95.6268 13.099 96.3713C13.099 97.1157 13.3947 97.8297 13.9211 98.3561C14.4475 98.8825 15.1615 99.1782 15.9059 99.1782Z" fill="#0F5875"/>
<path d="M40.2327 86.0792H77.6584C78.4028 86.0792 79.1168 85.7835 79.6432 85.2571C80.1696 84.7307 80.4653 84.0167 80.4653 83.2723V45.8465C80.4653 45.1021 80.1696 44.3881 79.6432 43.8617C79.1168 43.3353 78.4028 43.0396 77.6584 43.0396H40.2327C39.4882 43.0396 38.7743 43.3353 38.2479 43.8617C37.7215 44.3881 37.4257 45.1021 37.4257 45.8465V83.2723C37.4257 84.0167 37.7215 84.7307 38.2479 85.2571C38.7743 85.7835 39.4882 86.0792 40.2327 86.0792ZM43.0396 48.6535H56.1386V57.0743C56.1386 57.8187 56.4343 58.5327 56.9607 59.0591C57.4871 59.5855 58.2011 59.8812 58.9455 59.8812C59.69 59.8812 60.4039 59.5855 60.9303 59.0591C61.4567 58.5327 61.7525 57.8187 61.7525 57.0743V48.6535H74.8515V80.4654H43.0396V48.6535Z" fill="#0F5875"/>
<path d="M109.47 86.0792H146.896C147.641 86.0792 148.354 85.7835 148.881 85.2571C149.407 84.7307 149.703 84.0167 149.703 83.2723V45.8465C149.703 45.1021 149.407 44.3881 148.881 43.8617C148.354 43.3353 147.641 43.0396 146.896 43.0396H109.47C108.726 43.0396 108.012 43.3353 107.486 43.8617C106.959 44.3881 106.663 45.1021 106.663 45.8465V83.2723C106.663 84.0167 106.959 84.7307 107.486 85.2571C108.012 85.7835 108.726 86.0792 109.47 86.0792ZM112.277 48.6535H125.376V57.0743C125.376 57.8187 125.672 58.5327 126.198 59.0591C126.725 59.5855 127.439 59.8812 128.183 59.8812C128.928 59.8812 129.642 59.5855 130.168 59.0591C130.694 58.5327 130.99 57.8187 130.99 57.0743V48.6535H144.089V80.4654H112.277V48.6535Z" fill="#0F5875"/>
<path d="M26.198 118.827C26.198 121.232 26.9114 123.584 28.2479 125.584C29.5844 127.585 31.4841 129.144 33.7066 130.064C35.9292 130.985 38.3749 131.226 40.7343 130.756C43.0938 130.287 45.2611 129.129 46.9622 127.428C48.6632 125.726 49.8217 123.559 50.291 121.2C50.7603 118.84 50.5195 116.395 49.5988 114.172C48.6782 111.949 47.1192 110.05 45.119 108.713C43.1187 107.377 40.7671 106.663 38.3614 106.663C35.137 106.668 32.046 107.951 29.766 110.231C27.486 112.511 26.2029 115.602 26.198 118.827ZM44.9109 118.827C44.9109 120.122 44.5267 121.388 43.8071 122.465C43.0874 123.542 42.0645 124.382 40.8678 124.878C39.671 125.373 38.3541 125.503 37.0836 125.25C35.8131 124.998 34.6461 124.374 33.7302 123.458C32.8142 122.542 32.1904 121.375 31.9377 120.104C31.685 118.834 31.8147 117.517 32.3104 116.32C32.8061 115.124 33.6456 114.101 34.7227 113.381C35.7997 112.661 37.066 112.277 38.3614 112.277C40.0984 112.277 41.7643 112.967 42.9926 114.196C44.2208 115.424 44.9109 117.09 44.9109 118.827Z" fill="#0F5875"/>
<path d="M63.6238 118.827C63.6238 121.232 64.3371 123.584 65.6737 125.584C67.0102 127.585 68.9099 129.144 71.1324 130.064C73.355 130.985 75.8006 131.226 78.1601 130.756C80.5196 130.287 82.6869 129.129 84.3879 127.428C86.089 125.726 87.2475 123.559 87.7168 121.2C88.1861 118.84 87.9452 116.395 87.0246 114.172C86.104 111.949 84.545 110.05 82.5447 108.713C80.5445 107.377 78.1928 106.663 75.7871 106.663C72.5627 106.668 69.4718 107.951 67.1918 110.231C64.9118 112.511 63.6287 115.602 63.6238 118.827ZM82.3367 118.827C82.3367 120.122 81.9525 121.388 81.2329 122.465C80.5132 123.542 79.4903 124.382 78.2935 124.878C77.0968 125.373 75.7799 125.503 74.5094 125.25C73.2389 124.998 72.0719 124.374 71.1559 123.458C70.24 122.542 69.6162 121.375 69.3635 120.104C69.1108 118.834 69.2405 117.517 69.7362 116.32C70.2319 115.124 71.0714 114.101 72.1484 113.381C73.2255 112.661 74.4918 112.277 75.7871 112.277C77.5242 112.277 79.1901 112.967 80.4183 114.196C81.6466 115.424 82.3367 117.09 82.3367 118.827Z" fill="#0F5875"/>
<path d="M101.049 118.827C101.049 121.232 101.763 123.584 103.099 125.584C104.436 127.585 106.336 129.144 108.558 130.064C110.781 130.985 113.226 131.226 115.586 130.756C117.945 130.287 120.113 129.129 121.814 127.428C123.515 125.726 124.673 123.559 125.143 121.2C125.612 118.84 125.371 116.395 124.45 114.172C123.53 111.949 121.971 110.05 119.97 108.713C117.97 107.377 115.619 106.663 113.213 106.663C109.988 106.668 106.898 107.951 104.618 110.231C102.338 112.511 101.054 115.602 101.049 118.827ZM119.762 118.827C119.762 120.122 119.378 121.388 118.659 122.465C117.939 123.542 116.916 124.382 115.719 124.878C114.522 125.373 113.206 125.503 111.935 125.25C110.665 124.998 109.498 124.374 108.582 123.458C107.666 122.542 107.042 121.375 106.789 120.104C106.536 118.834 106.666 117.517 107.162 116.32C107.658 115.124 108.497 114.101 109.574 113.381C110.651 112.661 111.917 112.277 113.213 112.277C114.95 112.277 116.616 112.967 117.844 114.196C119.072 115.424 119.762 117.09 119.762 118.827Z" fill="#0F5875"/>
<path d="M138.475 118.827C138.475 121.232 139.189 123.584 140.525 125.584C141.862 127.585 143.761 129.144 145.984 130.064C148.206 130.985 150.652 131.226 153.012 130.756C155.371 130.287 157.538 129.129 159.239 127.428C160.94 125.726 162.099 123.559 162.568 121.2C163.038 118.84 162.797 116.395 161.876 114.172C160.955 111.949 159.396 110.05 157.396 108.713C155.396 107.377 153.044 106.663 150.639 106.663C147.414 106.668 144.323 107.951 142.043 110.231C139.763 112.511 138.48 115.602 138.475 118.827ZM157.188 118.827C157.188 120.122 156.804 121.388 156.084 122.465C155.365 123.542 154.342 124.382 153.145 124.878C151.948 125.373 150.631 125.503 149.361 125.25C148.09 124.998 146.923 124.374 146.007 123.458C145.091 122.542 144.468 121.375 144.215 120.104C143.962 118.834 144.092 117.517 144.588 116.32C145.083 115.124 145.923 114.101 147 113.381C148.077 112.661 149.343 112.277 150.639 112.277C152.376 112.277 154.042 112.967 155.27 114.196C156.498 115.424 157.188 117.09 157.188 118.827Z" fill="#0F5875"/>
<path d="M174.965 138.475H15.9059C15.1615 138.475 14.4475 138.771 13.9211 139.297C13.3947 139.824 13.099 140.538 13.099 141.282C13.099 142.027 13.3947 142.741 13.9211 143.267C14.4475 143.793 15.1615 144.089 15.9059 144.089H174.965C175.71 144.089 176.424 143.793 176.95 143.267C177.477 142.741 177.772 142.027 177.772 141.282C177.772 140.538 177.477 139.824 176.95 139.297C176.424 138.771 175.71 138.475 174.965 138.475Z" fill="#0F5875"/>
</svg>
