<svg width="236" height="142" viewBox="0 0 236 142" fill="none" xmlns="http://www.w3.org/2000/svg">
<path d="M213.088 130.12L196.823 97.5896C195.974 96.0339 195.833 95.6096 195.408 94.761L175.183 54.4522V24.3267H183.952C185.084 24.3267 186.074 23.3367 186.074 22.2052V11.3147C186.074 10.1833 185.084 9.19323 183.952 9.19323H140.39C139.259 9.19323 138.269 10.1833 138.269 11.3147V22.2052C138.269 23.3367 139.259 24.3267 140.39 24.3267H149.159V54.3108L128.934 94.761C128.51 95.6096 128.227 96.3167 127.52 97.5896L111.255 130.12C110.972 130.827 110.972 131.534 111.396 132.241C111.821 132.948 112.528 133.231 113.235 133.231H211.249C211.956 133.231 212.663 132.807 213.088 132.241C213.512 131.675 213.371 130.827 213.088 130.12ZM153.12 55.8665C153.261 55.5837 153.402 55.3008 153.402 54.8765V22.2052C153.402 21.0737 152.412 20.0837 151.281 20.0837H142.512V13.4363H181.831V20.0837H173.062C171.93 20.0837 170.94 21.0737 170.94 22.2052V54.8765C170.94 55.1594 171.082 55.5837 171.223 55.8665L191.165 95.6096C190.458 96.0339 190.034 96.4582 189.468 96.741C188.62 97.4482 188.054 97.8725 186.639 97.8725C185.225 97.8725 184.801 97.4482 183.811 96.741C182.679 95.8924 181.124 94.6195 178.436 94.6195C175.608 94.6195 174.193 95.8924 173.062 96.741C172.213 97.4482 171.647 97.8725 170.374 97.8725C169.102 97.8725 168.536 97.4482 167.687 96.741C166.556 95.8924 165 94.6195 162.313 94.6195C159.484 94.6195 158.07 95.8924 156.938 96.741C156.09 97.4482 155.524 97.8725 154.251 97.8725C152.978 97.8725 152.412 97.4482 151.564 96.741C150.432 95.8924 148.876 94.6195 146.189 94.6195C143.502 94.6195 141.946 95.8924 140.815 96.741C139.966 97.4482 139.4 97.8725 138.127 97.8725C136.855 97.8725 136.289 97.4482 135.44 96.741C135.016 96.3167 134.45 95.8924 133.743 95.6096L153.12 55.8665ZM116.629 128.988L131.339 99.4283C131.622 99.5697 131.904 99.8526 132.187 100.135C133.319 100.984 134.874 102.257 137.562 102.257C140.39 102.257 141.805 100.984 142.936 100.135C143.785 99.4283 144.351 99.004 145.624 99.004C146.896 99.004 147.462 99.4283 148.311 100.135C149.442 100.984 150.998 102.257 153.685 102.257C156.373 102.257 157.928 100.984 159.06 100.135C159.908 99.4283 160.474 99.004 161.747 99.004C163.02 99.004 163.586 99.4283 164.434 100.135C165.566 100.984 167.122 102.257 169.809 102.257C172.637 102.257 174.052 100.984 175.183 100.135C176.032 99.4283 176.598 99.004 177.871 99.004C179.143 99.004 179.709 99.4283 180.699 100.135C181.831 100.984 183.386 102.257 186.074 102.257C188.761 102.257 190.317 100.984 191.448 100.135C191.731 99.8526 192.014 99.7112 192.297 99.4283L207.006 128.988H116.629Z" fill="#0F5875"/>
<path d="M101.632 19.9771H81.2032V11.24C81.2032 10.2122 80.3038 9.31275 79.2759 9.31275H48.8247C47.7968 9.31275 46.8974 10.2122 46.8974 11.24V19.9771H25.3118C20.8147 19.9771 17.2171 23.5747 17.2171 28.0717V124.95C17.2171 129.447 20.8147 133.045 25.3118 133.045H101.761C106.258 133.045 109.856 129.447 109.856 124.95V28.0717C109.727 23.5747 106.129 19.9771 101.632 19.9771ZM48.8247 44.9034H79.2759C80.3038 44.9034 81.2032 44.004 81.2032 42.9761V34.6245H94.6942V117.755H32.25V34.753H46.8974V42.9761C46.8974 44.1325 47.7968 44.9034 48.8247 44.9034ZM77.3486 13.1673V32.6972V41.0488H50.752V32.6972V21.7759V13.1673H77.3486ZM105.873 124.822C105.873 127.134 103.945 129.062 101.632 129.062H25.3118C22.999 129.062 21.0717 127.134 21.0717 124.822V28.0717C21.0717 25.759 22.999 23.8317 25.3118 23.8317H46.8974V30.8984H30.3227C29.2948 30.8984 28.3954 31.7978 28.3954 32.8257V119.811C28.3954 120.839 29.2948 121.738 30.3227 121.738H96.6215C97.6494 121.738 98.5488 120.839 98.5488 119.811V32.8257C98.5488 31.7978 97.6494 30.8984 96.6215 30.8984H81.2032V23.8317H101.632C103.945 23.8317 105.873 25.759 105.873 28.0717V124.822Z" fill="#0F5875"/>
<path d="M37.004 66.6175C37.004 67.6454 37.9034 68.5448 38.9313 68.5448H88.3984C89.4263 68.5448 90.3257 67.6454 90.3257 66.6175C90.3257 65.5896 89.4263 64.6902 88.3984 64.6902H38.9313C37.9034 64.6902 37.004 65.5896 37.004 66.6175Z" fill="#0F5875"/>
<path d="M88.3984 78.1813H38.9313C37.9034 78.1813 37.004 79.0807 37.004 80.1086C37.004 81.1365 37.9034 82.0359 38.9313 82.0359H88.3984C89.4263 82.0359 90.3257 81.1365 90.3257 80.1086C90.3257 79.0807 89.4263 78.1813 88.3984 78.1813Z" fill="#0F5875"/>
<path d="M88.3984 92.3147H38.9313C37.9034 92.3147 37.004 93.2141 37.004 94.242C37.004 95.2699 37.9034 96.1693 38.9313 96.1693H88.3984C89.4263 96.1693 90.3257 95.2699 90.3257 94.242C90.3257 93.2141 89.4263 92.3147 88.3984 92.3147Z" fill="#0F5875"/>
</svg>
