<svg width="244" height="118" viewBox="0 0 244 118" fill="none" xmlns="http://www.w3.org/2000/svg">
<path d="M38.0797 53.006C38.1972 53.006 38.1972 53.006 38.3147 53.006C38.4323 53.006 38.5498 53.006 38.6673 53.006C43.251 59.5876 50.7729 63.7012 59.1175 63.7012C67.9323 63.7012 75.6892 59.1175 80.1554 52.1833C83.3287 51.4781 86.6195 46.6594 87.2072 45.6016C89.0876 42.4283 89.9104 39.6076 89.9104 35.9641C89.9104 18.8048 75.9243 4.93626 58.8825 4.93626H58.7649C41.6056 4.93626 27.6195 18.8048 27.6195 35.9641V42.5458C27.6195 45.3665 28.7948 48.0697 30.7928 50.0677C32.7908 51.9482 35.3765 53.006 38.0797 53.006ZM59.1175 60.1753C50.7729 60.1753 43.251 55.3566 39.7251 47.7171L41.6056 46.5418C47.4821 42.7809 54.2988 38.5498 58.2948 34.3187C64.6414 27.7371 69.3426 22.6833 70.988 20.9203C76.9821 24.7988 80.6255 31.498 80.6255 38.7849C80.508 50.5378 70.8705 60.1753 59.1175 60.1753ZM31.1454 35.9641C31.1454 20.8028 43.4861 8.46215 58.6474 8.46215H58.7649C73.9263 8.46215 86.2669 20.8028 86.2669 35.9641C86.2669 38.4323 85.9143 40.6653 84.1514 43.7211C83.7988 44.1912 83.4462 44.6614 83.0936 45.249C83.6813 43.251 83.9163 41.1355 83.9163 38.9024C83.9163 30.4402 79.5677 22.5657 72.5159 17.9821C71.6932 17.3944 70.8705 17.2769 70.1653 17.2769C69.3426 17.3944 68.8725 17.9821 68.0498 18.8048C66.2869 20.6853 61.7032 25.504 55.5916 31.9681C51.8307 35.8466 45.0139 40.1952 39.6076 43.6036L37.6096 44.8964C36.9044 45.3665 36.4343 46.0717 36.1992 46.8944C35.9641 47.247 35.8466 47.8347 36.0817 48.3048C36.0817 48.6574 36.0817 48.8924 36.0817 49.245C35.0239 48.8924 33.9661 48.3048 33.1434 47.4821C31.8506 46.1892 31.0279 44.4263 31.0279 42.5458L31.1454 35.9641Z" fill="#0F5875"/>
<path d="M58.7649 67.5797C34.9064 67.5797 15.5139 86.9721 15.5139 110.831C15.5139 111.771 16.3367 112.594 17.2769 112.594H100.371C101.311 112.594 102.133 111.771 102.133 110.831C102.016 86.9721 82.6235 67.5797 58.7649 67.5797ZM80.508 77.5697C77.3347 86.8546 68.6375 93.0837 58.7649 93.0837C48.8924 93.0837 40.1952 86.8546 37.0219 77.5697C43.251 73.4562 50.7729 71.1056 58.7649 71.1056C66.757 71.1056 74.2789 73.4562 80.508 77.5697ZM19.0398 109.068C19.51 97.1972 25.2689 86.6195 34.0837 79.6853C38.0797 89.9104 47.7171 96.6096 58.7649 96.6096C69.8128 96.6096 79.5677 89.9104 83.4462 79.6853C92.1434 86.6195 97.9024 97.1972 98.4901 109.068H19.0398Z" fill="#0F5875"/>
<path d="M147.219 74.9398C146.611 74.62 145.636 74.1065 145.404 74.012C140 71.4199 133.941 69.9646 127.548 69.9646C115.703 69.9646 105.012 74.9535 97.5 82.9233C90.6181 90.2242 86.4035 100.027 86.4131 110.787C86.4143 111.739 87.2182 112.5 88.1787 112.5H166.919C167.88 112.5 168.684 111.739 168.685 110.787C168.696 95.3416 160.006 81.8735 147.219 74.9398ZM109.374 92.6596H143.509V108.999H109.374V92.6596ZM143.509 77.1841V89.1584H109.374V78.0711C109.374 78.0209 109.363 77.9742 109.359 77.9252C114.662 75.0845 120.726 73.4658 127.165 73.4658C133.021 73.4658 138.564 74.8079 143.509 77.1841ZM105.843 80.0656V108.999H89.6029C90.0273 99.955 93.72 91.7466 99.5307 85.5026C101.423 83.4689 103.541 81.6436 105.843 80.0656ZM147.04 108.999V79.1215C157.207 85.4249 164.139 96.4013 164.729 108.999H147.04Z" fill="#0F5875"/>
<path d="M102.694 44.1858H103.254C104.134 56.3526 114.368 65.9915 126.856 65.9915C139.348 65.9915 149.587 56.3526 150.467 44.1858H151.028C153.443 44.1858 155.335 41.8038 155.335 38.7623C155.335 36.4608 154.249 34.5422 152.676 33.7427C151.965 22.9122 144.495 13.7156 133.917 10.7559C132.782 7.97237 130.032 6 126.824 6C123.606 6 120.85 7.98404 119.721 10.7804C109.189 13.7669 101.757 22.9425 101.049 33.7427C99.4749 34.5422 98.3897 36.462 98.3897 38.7623C98.3873 41.8038 100.28 44.1858 102.694 44.1858ZM126.856 62.4903C116.316 62.4903 107.655 54.4211 106.786 44.1858H146.935C146.066 54.4211 137.401 62.4903 126.856 62.4903ZM151.035 40.6845H102.687C102.507 40.6577 101.91 40.0029 101.91 38.7612C101.91 37.9734 102.149 37.4494 102.372 37.1459C102.488 37.1704 102.608 37.1833 102.733 37.1833H150.989C151.112 37.1833 151.234 37.1704 151.349 37.1459C151.571 37.4505 151.81 37.9734 151.81 38.7612C151.81 40.0029 151.214 40.6565 151.035 40.6845ZM148.765 33.682H134.092V14.5991C142.328 17.5401 148.081 24.9779 148.765 33.682ZM130.561 13.6782V33.682H122.322V13.5849C122.322 10.9029 124.944 8.81617 127.777 9.71015C129.478 10.247 130.561 11.9089 130.561 13.6782ZM118.79 14.6282V33.682H104.195C104.876 25.0059 110.597 17.5891 118.79 14.6282Z" fill="#0F5875"/>
<path d="M206.811 65.1621C205.723 64.9461 204.652 64.7699 204.026 64.689C201.882 64.3848 199.692 64.2171 197.464 64.2171C195.55 64.2171 193.667 64.3474 191.813 64.5731C190.798 64.6926 189.89 64.8483 189.305 64.9497C167.563 68.8205 151 87.851 151 110.69C151 111.689 151.81 112.5 152.81 112.5H242.127C243.128 112.5 243.938 111.689 243.938 110.69C243.938 88.2662 227.972 69.5 206.811 65.1621ZM203.422 68.2592V77.4975H192.559V68.1289C194.17 67.9442 195.804 67.838 197.464 67.838C199.487 67.8392 201.474 67.9877 203.422 68.2592ZM199.737 81.1196L203.742 108.88H191.057L195.062 81.1196H199.737ZM188.938 68.6938V79.308C188.938 80.3073 189.748 81.1184 190.748 81.1184H191.404L187.399 108.879H154.658C155.491 88.9795 169.958 72.544 188.938 68.6938ZM207.401 108.88L203.396 81.1196H205.232C206.233 81.1196 207.043 80.3085 207.043 79.3092V68.9315C225.506 73.1656 239.462 89.3501 240.279 108.88H207.401Z" fill="#0F5875"/>
<path d="M196.684 60.3595C211.4 60.3595 223.373 48.3911 223.373 33.6803C223.373 18.9684 211.401 7 196.684 7C181.972 7 170.004 18.9684 170.004 33.6803C170.004 48.3911 181.972 60.3595 196.684 60.3595ZM196.684 10.6197C209.403 10.6197 219.752 20.9636 219.752 33.6791C219.752 46.3935 209.403 56.7373 196.684 56.7373C183.969 56.7373 173.625 46.3935 173.625 33.6791C173.625 20.9648 183.969 10.6197 196.684 10.6197Z" fill="#0F5875"/>
<path d="M190.929 36.5517C193.014 36.5517 194.716 34.9597 194.93 32.9308H198.637C198.852 34.9597 200.553 36.5517 202.638 36.5517H211.449C213.679 36.5517 215.493 34.7377 215.493 32.5071V28.5241C215.493 26.2948 213.679 24.4807 211.449 24.4807H202.638C200.409 24.4807 198.595 26.2948 198.595 28.5241V29.3086H194.974V28.5241C194.974 26.2948 193.16 24.4807 190.931 24.4807H182.12C179.89 24.4807 178.076 26.2948 178.076 28.5241V32.5071C178.076 34.7377 179.89 36.5517 182.12 36.5517H190.929ZM202.215 28.5241C202.215 28.2924 202.404 28.1017 202.637 28.1017H211.448C211.681 28.1017 211.87 28.2912 211.87 28.5241V32.5071C211.87 32.7401 211.681 32.9308 211.448 32.9308H202.637C202.404 32.9308 202.215 32.7413 202.215 32.5071V28.5241ZM181.696 32.5071V28.5241C181.696 28.2924 181.885 28.1017 182.118 28.1017H190.929C191.162 28.1017 191.352 28.2912 191.352 28.5241V32.5071C191.352 32.7401 191.162 32.9308 190.929 32.9308H182.118C181.885 32.9308 181.696 32.7413 181.696 32.5071Z" fill="#0F5875"/>
</svg>
