<svg width="169" height="169" viewBox="0 0 169 169" fill="none" xmlns="http://www.w3.org/2000/svg">
<path d="M71.825 133.51H25.35V60.84H135.2V70.135C135.2 70.8073 135.467 71.4521 135.942 71.9275C136.418 72.4029 137.063 72.67 137.735 72.67C138.407 72.67 139.052 72.4029 139.528 71.9275C140.003 71.4521 140.27 70.8073 140.27 70.135V34.645C140.27 33.9727 140.003 33.3279 139.528 32.8525C139.052 32.3771 138.407 32.11 137.735 32.11H22.815C22.1427 32.11 21.4979 32.3771 21.0225 32.8525C20.5471 33.3279 20.28 33.9727 20.28 34.645V136.045C20.28 136.717 20.5471 137.362 21.0225 137.838C21.4979 138.313 22.1427 138.58 22.815 138.58H71.825C72.4973 138.58 73.1421 138.313 73.6175 137.838C74.0929 137.362 74.36 136.717 74.36 136.045C74.36 135.373 74.0929 134.728 73.6175 134.252C73.1421 133.777 72.4973 133.51 71.825 133.51ZM135.2 37.18V55.77H25.35V37.18H135.2Z" fill="#0F5875"/>
<path d="M34.645 49.01H43.095C43.7673 49.01 44.4121 48.7429 44.8875 48.2675C45.3629 47.7921 45.63 47.1473 45.63 46.475C45.63 45.8027 45.3629 45.1579 44.8875 44.6825C44.4121 44.2071 43.7673 43.94 43.095 43.94H34.645C33.9727 43.94 33.3279 44.2071 32.8525 44.6825C32.3771 45.1579 32.11 45.8027 32.11 46.475C32.11 47.1473 32.3771 47.7921 32.8525 48.2675C33.3279 48.7429 33.9727 49.01 34.645 49.01Z" fill="#0F5875"/>
<path d="M53.235 49.01H61.685C62.3573 49.01 63.0021 48.7429 63.4775 48.2675C63.9529 47.7921 64.22 47.1473 64.22 46.475C64.22 45.8027 63.9529 45.1579 63.4775 44.6825C63.0021 44.2071 62.3573 43.94 61.685 43.94H53.235C52.5627 43.94 51.9179 44.2071 51.4425 44.6825C50.9671 45.1579 50.7 45.8027 50.7 46.475C50.7 47.1473 50.9671 47.7921 51.4425 48.2675C51.9179 48.7429 52.5627 49.01 53.235 49.01Z" fill="#0F5875"/>
<path d="M113.23 96.33C109.887 96.33 106.62 97.3212 103.841 99.1782C101.062 101.035 98.8956 103.675 97.6164 106.763C96.3373 109.851 96.0026 113.249 96.6547 116.527C97.3068 119.805 98.9164 122.817 101.28 125.18C103.643 127.544 106.655 129.153 109.933 129.805C113.211 130.457 116.609 130.123 119.697 128.844C122.785 127.564 125.425 125.398 127.282 122.619C129.139 119.84 130.13 116.573 130.13 113.23C130.13 108.748 128.349 104.449 125.18 101.28C122.011 98.1105 117.712 96.33 113.23 96.33ZM113.23 125.06C110.89 125.06 108.603 124.366 106.658 123.066C104.712 121.766 103.196 119.919 102.301 117.757C101.405 115.596 101.171 113.217 101.627 110.922C102.084 108.627 103.21 106.519 104.865 104.865C106.519 103.21 108.627 102.084 110.922 101.627C113.217 101.171 115.595 101.405 117.757 102.301C119.919 103.196 121.766 104.712 123.066 106.658C124.366 108.603 125.06 110.89 125.06 113.23C125.06 116.368 123.814 119.377 121.595 121.595C119.377 123.814 116.368 125.06 113.23 125.06Z" fill="#0F5875"/>
<path d="M151.627 104.189L141.96 102.718C141.466 101.203 140.856 99.7282 140.135 98.3073L145.948 90.415C146.331 89.9197 146.516 89.3004 146.47 88.6764C146.423 88.0524 146.147 87.4678 145.695 87.035L137.651 78.9906C137.218 78.5386 136.633 78.2627 136.009 78.2159C135.385 78.1691 134.766 78.3547 134.271 78.7371L126.412 84.5338C124.999 83.8491 123.536 83.2728 122.035 82.81L120.582 73.177C120.5 72.5706 120.202 72.0142 119.742 71.6104C119.282 71.2066 118.692 70.9827 118.08 70.98H106.69C106.083 70.9815 105.497 71.2007 105.038 71.5976C104.579 71.9946 104.278 72.543 104.189 73.1432L102.735 82.81C101.208 83.3079 99.722 83.9238 98.2904 84.6521L90.4319 78.8554C89.9366 78.473 89.3173 78.2874 88.6933 78.3342C88.0693 78.381 87.4847 78.6569 87.0519 79.1089L79.0075 87.1533C78.5555 87.5861 78.2796 88.1707 78.2328 88.7947C78.186 89.4187 78.3716 90.038 78.754 90.5333L84.5676 98.4256C83.8748 99.8103 83.2873 101.245 82.81 102.718L73.1094 104.189C72.5153 104.285 71.9749 104.589 71.5848 105.048C71.1947 105.506 70.9803 106.088 70.98 106.69V118.08C70.9815 118.687 71.2007 119.273 71.5976 119.732C71.9946 120.191 72.543 120.493 73.1432 120.582L82.8945 122.052C83.3861 123.538 83.9907 124.984 84.7028 126.378L78.8385 134.321C78.4562 134.817 78.2705 135.436 78.3173 136.06C78.3641 136.684 78.64 137.268 79.092 137.701L87.1364 145.746C87.5692 146.198 88.1538 146.474 88.7778 146.52C89.4018 146.567 90.0211 146.381 90.5164 145.999L98.4932 140.118C99.8775 140.816 101.312 141.41 102.786 141.892L104.273 151.694C104.374 152.268 104.669 152.79 105.109 153.172C105.549 153.553 106.107 153.772 106.69 153.79H118.08C118.687 153.788 119.273 153.569 119.732 153.172C120.191 152.775 120.493 152.227 120.582 151.627L122.069 141.825C123.542 141.342 124.977 140.749 126.361 140.05L134.338 145.932C134.833 146.314 135.453 146.5 136.077 146.453C136.701 146.406 137.285 146.13 137.718 145.678L145.763 137.634C146.214 137.201 146.49 136.616 146.537 135.992C146.584 135.368 146.398 134.749 146.016 134.254L140.152 126.311C140.861 124.938 141.465 123.515 141.96 122.052L151.711 120.582C152.296 120.475 152.825 120.165 153.205 119.708C153.585 119.251 153.792 118.675 153.79 118.08V106.69C153.788 106.083 153.569 105.497 153.172 105.038C152.775 104.579 152.227 104.278 151.627 104.189ZM148.72 115.9L139.543 117.286C139.058 117.361 138.605 117.574 138.239 117.901C137.873 118.228 137.61 118.654 137.482 119.128C136.893 121.299 136.023 123.384 134.896 125.33C134.649 125.757 134.532 126.247 134.559 126.739C134.586 127.231 134.756 127.705 135.048 128.102L140.574 135.589L135.606 140.557L128.085 135.014C127.688 134.722 127.214 134.552 126.722 134.525C126.23 134.498 125.74 134.615 125.314 134.862C123.377 135.976 121.303 136.834 119.145 137.414C118.671 137.542 118.245 137.806 117.918 138.172C117.591 138.538 117.377 138.991 117.303 139.476L115.9 148.72H108.87L107.467 139.476C107.393 138.991 107.179 138.538 106.852 138.172C106.525 137.806 106.099 137.542 105.625 137.414C103.467 136.834 101.394 135.976 99.4565 134.862C99.0298 134.615 98.5403 134.498 98.048 134.525C97.5558 134.552 97.0821 134.722 96.6849 135.014L89.1644 140.557L84.1958 135.589L89.739 128.102C90.0311 127.705 90.2011 127.231 90.2281 126.739C90.2551 126.247 90.138 125.757 89.8911 125.33C88.7634 123.384 87.8942 121.299 87.3054 119.128C87.177 118.654 86.9137 118.228 86.5478 117.901C86.1818 117.574 85.7287 117.361 85.2436 117.286L76.05 115.9V108.87L85.1929 107.484C85.6832 107.411 86.1414 107.196 86.5109 106.866C86.8803 106.536 87.1448 106.104 87.2716 105.625C87.8539 103.43 88.7233 101.322 89.8573 99.3551C90.1042 98.9284 90.2213 98.4389 90.1943 97.9466C90.1673 97.4544 89.9973 96.9807 89.7052 96.5835L84.2296 89.1644L89.1982 84.1958L96.6004 89.6545C96.9976 89.9466 97.4713 90.1166 97.9635 90.1436C98.4558 90.1706 98.9453 90.0535 99.372 89.8066C101.348 88.6585 103.468 87.7777 105.676 87.1871C106.155 87.0603 106.586 86.7958 106.917 86.4264C107.247 86.0569 107.462 85.5987 107.535 85.1084L108.87 76.05H115.9L117.269 85.1253C117.342 85.6156 117.557 86.0738 117.887 86.4433C118.217 86.8127 118.649 87.0772 119.128 87.204C121.336 87.7946 123.456 88.6754 125.432 89.8235C125.858 90.0725 126.348 90.1909 126.84 90.1638C127.333 90.1368 127.807 89.9656 128.203 89.6714L135.606 84.2127L140.574 89.1813L135.099 96.6004C134.806 96.9976 134.637 97.4713 134.61 97.9635C134.582 98.4558 134.7 98.9453 134.947 99.372C136.08 101.339 136.95 103.447 137.532 105.642C137.659 106.121 137.924 106.553 138.293 106.883C138.662 107.213 139.121 107.428 139.611 107.501L148.754 108.887L148.72 115.9Z" fill="#0F5875"/>
</svg>
