<svg width="189" height="189" viewBox="0 0 189 189" fill="none" xmlns="http://www.w3.org/2000/svg">
<g clip-path="url(#clip0_39_385)">
<g filter="url(#filter0_d_39_385)">
<path d="M174.965 99.1782H160.931V75.7871C160.931 75.0427 160.635 74.3287 160.109 73.8023C159.582 73.2759 158.868 72.9802 158.124 72.9802H114.149V49.5891C114.149 48.8447 113.853 48.1307 113.326 47.6043C112.8 47.0779 112.086 46.7822 111.342 46.7822H15.9061C15.1616 46.7822 14.4477 47.0779 13.9213 47.6043C13.3949 48.1307 13.0991 48.8447 13.0991 49.5891V137.54C13.0991 138.284 13.3949 138.998 13.9213 139.524C14.4477 140.051 15.1616 140.347 15.9061 140.347H37.2761C37.6583 143.854 39.3222 147.097 41.9487 149.453C44.5751 151.808 47.9791 153.111 51.5073 153.111C55.0355 153.111 58.4394 151.808 61.0659 149.453C63.6924 147.097 65.3563 143.854 65.7384 140.347H128.52C128.903 143.859 130.569 147.106 133.198 149.465C135.828 151.824 139.237 153.129 142.77 153.129C146.303 153.129 149.712 151.824 152.341 149.465C154.971 147.106 156.637 143.859 157.02 140.347H174.965C175.71 140.347 176.424 140.051 176.95 139.524C177.477 138.998 177.772 138.284 177.772 137.54V101.985C177.772 101.241 177.477 100.527 176.95 100C176.424 99.4739 175.71 99.1782 174.965 99.1782ZM51.4605 147.532C49.7334 147.54 48.0431 147.034 46.6037 146.08C45.1644 145.125 44.0409 143.765 43.3757 142.171C42.7105 140.577 42.5335 138.822 42.8673 137.127C43.201 135.432 44.0304 133.875 45.2504 132.653C46.4703 131.43 48.0257 130.597 49.7195 130.26C51.4133 129.923 53.1692 130.096 54.7644 130.757C56.3597 131.419 57.7225 132.54 58.6801 133.977C59.6377 135.414 60.147 137.104 60.1433 138.831C60.1386 141.121 59.2331 143.317 57.6225 144.945C56.0118 146.574 53.8254 147.503 51.5354 147.532H51.4605ZM51.4605 124.497C48.3878 124.516 45.4023 125.521 42.9433 127.363C40.4842 129.206 38.6814 131.789 37.8001 134.733H18.713V52.396H108.535V134.733H65.2332C64.3526 131.781 62.5449 129.192 60.0778 127.348C57.6106 125.505 54.6152 124.505 51.5354 124.497H51.4605ZM142.761 147.532C141.035 147.532 139.348 147.02 137.914 146.061C136.48 145.102 135.362 143.739 134.702 142.145C134.043 140.55 133.871 138.796 134.209 137.104C134.547 135.412 135.38 133.858 136.601 132.639C137.823 131.421 139.378 130.591 141.071 130.257C142.764 129.923 144.518 130.098 146.111 130.761C147.704 131.424 149.064 132.545 150.02 133.981C150.976 135.417 151.484 137.105 151.481 138.831C151.476 141.14 150.555 143.353 148.92 144.985C147.285 146.616 145.07 147.532 142.761 147.532ZM172.159 134.733H156.496C155.599 131.802 153.785 129.236 151.321 127.414C148.856 125.591 145.872 124.607 142.807 124.607C139.742 124.607 136.758 125.591 134.294 127.414C131.83 129.236 130.016 131.802 129.119 134.733H114.149V78.594H155.317V101.985C155.317 102.73 155.613 103.444 156.139 103.97C156.665 104.496 157.379 104.792 158.124 104.792H172.159V134.733Z" fill="white"/>
</g>
<g filter="url(#filter1_d_39_385)">
<path d="M30.8763 80.4654H87.9505L78.5941 89.8218C78.3183 90.0788 78.0971 90.3886 77.9437 90.733C77.7903 91.0773 77.7078 91.449 77.7011 91.8259C77.6945 92.2027 77.7638 92.5771 77.905 92.9266C78.0462 93.2761 78.2563 93.5936 78.5228 93.8602C78.7894 94.1267 79.1069 94.3368 79.4564 94.478C79.8059 94.6192 80.1803 94.6885 80.5572 94.6819C80.934 94.6752 81.3057 94.5927 81.65 94.4393C81.9944 94.2859 82.3042 94.0647 82.5612 93.7889L95.155 81.1952C95.6806 80.6689 95.9759 79.9554 95.9759 79.2116C95.9759 78.4678 95.6806 77.7543 95.155 77.228L82.5612 64.6343C82.2958 64.3738 81.9817 64.1681 81.6368 64.029C81.2919 63.8899 80.923 63.8201 80.5512 63.8236C80.1793 63.8271 79.8118 63.9038 79.4696 64.0493C79.1274 64.1948 78.8171 64.4063 78.5567 64.6717C78.2962 64.9371 78.0905 65.2512 77.9514 65.5961C77.8123 65.941 77.7425 66.3099 77.746 66.6817C77.7495 67.0536 77.8262 67.4211 77.9717 67.7633C78.1172 68.1056 78.3287 68.4158 78.5941 68.6762L84.7693 74.8515H30.8763C30.1318 74.8515 29.4179 75.1472 28.8915 75.6736C28.3651 76.2 28.0693 76.914 28.0693 77.6584C28.0693 78.4029 28.3651 79.1168 28.8915 79.6432C29.4179 80.1696 30.1318 80.4654 30.8763 80.4654Z" fill="white"/>
</g>
<g filter="url(#filter2_d_39_385)">
<path d="M91.693 107.599C91.693 106.855 91.3973 106.141 90.8709 105.614C90.3445 105.088 89.6305 104.792 88.8861 104.792H31.9989L41.1682 95.6415C41.4275 95.3785 41.6324 95.0671 41.7713 94.725C41.9102 94.3828 41.9804 94.0167 41.9778 93.6474C41.9752 93.2782 41.8998 92.9131 41.7561 92.5729C41.6124 92.2328 41.4031 91.9243 41.1402 91.665C40.8772 91.4057 40.5658 91.2008 40.2237 91.0619C39.8815 90.923 39.5154 90.8529 39.1461 90.8555C38.7769 90.8581 38.4117 90.9334 38.0716 91.0771C37.7315 91.2208 37.4229 91.4301 37.1637 91.6931L24.5699 104.287C24.0443 104.813 23.749 105.527 23.749 106.27C23.749 107.014 24.0443 107.728 24.5699 108.254L37.1637 120.848C37.6922 121.379 38.4101 121.678 39.1593 121.68C39.9086 121.682 40.6278 121.386 41.1589 120.857C41.6899 120.329 41.9892 119.611 41.991 118.861C41.9927 118.112 41.6968 117.393 41.1682 116.862L34.6936 110.406H88.9609C89.6923 110.386 90.3872 110.082 90.8975 109.558C91.4078 109.034 91.6933 108.331 91.693 107.599Z" fill="white"/>
</g>
</g>
<defs>
<filter id="filter0_d_39_385" x="1.09912" y="34.7822" width="188.673" height="130.347" filterUnits="userSpaceOnUse" color-interpolation-filters="sRGB">
<feFlood flood-opacity="0" result="BackgroundImageFix"/>
<feColorMatrix in="SourceAlpha" type="matrix" values="0 0 0 0 0 0 0 0 0 0 0 0 0 0 0 0 0 0 127 0" result="hardAlpha"/>
<feOffset/>
<feGaussianBlur stdDeviation="6"/>
<feComposite in2="hardAlpha" operator="out"/>
<feColorMatrix type="matrix" values="0 0 0 0 0 0 0 0 0 1 0 0 0 0 0.82 0 0 0 0.5 0"/>
<feBlend mode="normal" in2="BackgroundImageFix" result="effect1_dropShadow_39_385"/>
<feBlend mode="normal" in="SourceGraphic" in2="effect1_dropShadow_39_385" result="shape"/>
</filter>
<filter id="filter1_d_39_385" x="-221.931" y="-186.177" width="567.907" height="530.859" filterUnits="userSpaceOnUse" color-interpolation-filters="sRGB">
<feFlood flood-opacity="0" result="BackgroundImageFix"/>
<feColorMatrix in="SourceAlpha" type="matrix" values="0 0 0 0 0 0 0 0 0 0 0 0 0 0 0 0 0 0 127 0" result="hardAlpha"/>
<feOffset/>
<feGaussianBlur stdDeviation="125"/>
<feComposite in2="hardAlpha" operator="out"/>
<feColorMatrix type="matrix" values="0 0 0 0 0 0 0 0 0 1 0 0 0 0 0.82 0 0 0 1 0"/>
<feBlend mode="normal" in2="BackgroundImageFix" result="effect1_dropShadow_39_385"/>
<feBlend mode="normal" in="SourceGraphic" in2="effect1_dropShadow_39_385" result="shape"/>
</filter>
<filter id="filter2_d_39_385" x="-226.251" y="-159.145" width="567.944" height="530.824" filterUnits="userSpaceOnUse" color-interpolation-filters="sRGB">
<feFlood flood-opacity="0" result="BackgroundImageFix"/>
<feColorMatrix in="SourceAlpha" type="matrix" values="0 0 0 0 0 0 0 0 0 0 0 0 0 0 0 0 0 0 127 0" result="hardAlpha"/>
<feOffset/>
<feGaussianBlur stdDeviation="125"/>
<feComposite in2="hardAlpha" operator="out"/>
<feColorMatrix type="matrix" values="0 0 0 0 0 0 0 0 0 1 0 0 0 0 0.82 0 0 0 1 0"/>
<feBlend mode="normal" in2="BackgroundImageFix" result="effect1_dropShadow_39_385"/>
<feBlend mode="normal" in="SourceGraphic" in2="effect1_dropShadow_39_385" result="shape"/>
</filter>
<clipPath id="clip0_39_385">
<rect width="189" height="189" fill="white"/>
</clipPath>
</defs>
</svg>
