<svg width="23" height="23" viewBox="0 0 23 23" fill="none" xmlns="http://www.w3.org/2000/svg">
<path d="M22.7424 9.49012L19.5635 7.78602L22.1024 6.07475C22.2464 5.97777 22.328 5.81159 22.3168 5.63838C22.3056 5.46517 22.2033 5.3109 22.048 5.23325L14.8875 1.65209C14.7362 1.57639 14.5563 1.58446 14.4121 1.6737L11.5 3.47752L8.58794 1.6737C8.44389 1.58446 8.26391 1.57639 8.11251 1.65209L0.952019 5.23331C0.79671 5.31097 0.694386 5.46523 0.68319 5.63844C0.671994 5.81165 0.753554 5.97777 0.897537 6.07482L3.43644 7.78608L0.257554 9.49019C0.102245 9.57344 0.00389161 9.73389 0.000116289 9.91003C-0.00372413 10.0862 0.087795 10.2507 0.239329 10.3405L7.33141 14.543C7.40802 14.5884 7.49407 14.6112 7.58026 14.6112C7.65947 14.6112 7.73882 14.592 7.81094 14.5533L11.0118 12.8374V20.1205L4.84503 17.03V14.2136C4.84503 13.944 4.62652 13.7254 4.35684 13.7254C4.08717 13.7254 3.86865 13.944 3.86865 14.2136V17.3313C3.86865 17.5161 3.973 17.685 4.13813 17.7678L11.2812 21.3476C11.2859 21.3498 11.2907 21.3515 11.2953 21.3536C11.3029 21.3571 11.3105 21.3604 11.3183 21.3635C11.3304 21.3684 11.3426 21.3726 11.3549 21.3765C11.3624 21.3788 11.3698 21.3812 11.3774 21.3832C11.3908 21.3867 11.4043 21.3893 11.4179 21.3916C11.4248 21.3927 11.4316 21.3943 11.4386 21.3952C11.4569 21.3975 11.4753 21.3987 11.4937 21.3989C11.4959 21.3989 11.4981 21.3994 11.5003 21.3994C11.521 21.3994 11.5419 21.3977 11.5627 21.395C11.5678 21.3943 11.5729 21.3931 11.5781 21.3923C11.5934 21.3898 11.6085 21.3868 11.6236 21.3828C11.6307 21.381 11.6375 21.3788 11.6445 21.3766C11.6574 21.3726 11.6702 21.368 11.683 21.3628C11.6906 21.3597 11.6981 21.3566 11.7056 21.3531C11.7099 21.3511 11.7144 21.3497 11.7187 21.3475L18.8618 17.7677C19.0269 17.685 19.1313 17.516 19.1313 17.3313V14.2135C19.1313 13.9439 18.9127 13.7253 18.6431 13.7253C18.3734 13.7253 18.1549 13.9439 18.1549 14.2135V17.0299L11.9881 20.1203V12.8373L15.189 14.5532C15.2612 14.5918 15.3405 14.6111 15.4197 14.6111C15.5059 14.6111 15.592 14.5883 15.6686 14.5429L22.7606 10.3403C22.9122 10.2506 23.0036 10.086 22.9999 9.9099C22.9961 9.73376 22.8977 9.57337 22.7424 9.49012ZM11.5 11.4542L5.38217 7.82904L11.5 4.60368L17.6179 7.82904L11.5 11.4542ZM14.6945 2.64728L20.8633 5.7325L18.6124 7.2496L12.4821 4.01766L14.6945 2.64728ZM8.30544 2.64728L10.5178 4.01772L4.3875 7.24966L2.13663 5.7325L8.30544 2.64728ZM7.59223 13.5625L1.48174 9.94166L4.3959 8.37946L10.5064 12.0003L7.59223 13.5625ZM15.4077 13.5625L12.4936 12.0003L18.6041 8.37952L21.5182 9.94173L15.4077 13.5625Z" fill="#B1B1B1"/>
<rect x="11" width="1" height="10" rx="0.5" fill="#B1B1B1"/>
<rect x="9" y="8.86603" width="1" height="3" rx="0.5" transform="rotate(-60 9 8.86603)" fill="#B1B1B1"/>
<rect x="11.5" y="10.366" width="1" height="3" rx="0.5" transform="rotate(-120 11.5 10.366)" fill="#B1B1B1"/>
</svg>
