<svg width="24" height="25" viewBox="0 0 24 25" fill="none" xmlns="http://www.w3.org/2000/svg">
<path fill-rule="evenodd" clip-rule="evenodd" d="M11.1343 0V0.5V1.69119H11.7618H12.2618V2.69119H11.7618H11.1343V10.6471V11.1471H10.1343V10.6471V2.69119H9.50687H9.00687V1.69119H9.50687H10.1343V0.5V0H11.1343ZM14.5168 0V0.5V8.45594H15.1442H15.6442V9.45594H15.1442H14.5168V10.6471V11.1471H13.5168V10.6471V9.45594H12.8892H12.3892V8.45594H12.8892H13.5168V0.5V0H14.5168ZM17.8991 0V0.5V5.07357H18.5265H19.0265V6.07357H18.5265H17.8991V10.6471V11.1471H16.8991V10.6471V6.07357H16.2716H15.7716V5.07357H16.2716H16.8991V0.5V0H17.8991ZM7.28482 15.231L6.32088 6.07357H7.81568H8.31568V5.07357H7.81568H6.21562L6.0119 3.13826C5.94425 2.80002 5.67366 2.52943 5.33543 2.52943H0.600098V3.88238H4.7266L6.0119 15.9913L4.90945 18.7764C4.82692 18.7688 4.74334 18.7648 4.6589 18.7648C3.17065 18.7648 1.95299 19.9825 1.95299 21.4707C1.95299 22.959 3.17065 24.1766 4.6589 24.1766C6.14714 24.1766 7.3648 22.959 7.3648 21.4707C7.3648 20.9788 7.23175 20.5164 6.99985 20.1178H18.5532C18.3213 20.5164 18.1883 20.9788 18.1883 21.4707C18.1883 22.959 19.406 24.1766 20.8942 24.1766C22.3824 24.1766 23.6001 22.959 23.6001 21.4707C23.6001 19.9825 22.3824 18.7648 20.8942 18.7648L20.8877 18.7648H6.35014L7.16722 16.6638L23.0588 13.353C23.3971 13.2854 23.6 13.0148 23.6 12.6765V5.57357C23.6 5.16768 23.3294 5.00984 22.9235 5.00984H21.3452V6.1373H22.2471V12.1354L7.28482 15.231ZM20.8942 20.1178C20.1501 20.1178 19.5412 20.7266 19.5412 21.4707C19.5412 22.2149 20.1501 22.8237 20.8942 22.8237C21.6383 22.8237 22.2471 22.2149 22.2471 21.4707C22.2471 20.7266 21.6383 20.1178 20.8942 20.1178ZM3.30594 21.4707C3.30594 20.7266 3.91477 20.1178 4.6589 20.1178C5.40302 20.1178 6.01185 20.7266 6.01185 21.4707C6.01185 22.2149 5.40302 22.8237 4.6589 22.8237C3.91477 22.8237 3.30594 22.2149 3.30594 21.4707Z" fill="#B1B1B1"/>
</svg>
