<svg width="23" height="23" viewBox="0 0 23 23" fill="none" xmlns="http://www.w3.org/2000/svg">
<path d="M10.4545 13.5909L8.36353 11.6494L8.9908 11.052L10.4545 12.3961L13.4863 8.88644L14.1135 9.48384L10.4545 13.5909Z" fill="#B1B1B1"/>
<path d="M12.0823 0L16.7273 4.18456V5.22727H6.27275V4.18456L10.9178 0H12.0823ZM15.1364 4.27686L11.5 0.950413L7.86366 4.27686H15.1364Z" fill="#B1B1B1"/>
<path d="M10.9177 23L6.27271 18.8154L6.27271 17.7727L16.7272 17.7727L16.7272 18.8154L12.0822 23L10.9177 23ZM7.86361 18.7231L11.5 22.0496L15.1363 18.7231L7.86361 18.7231Z" fill="#B1B1B1"/>
<path d="M23 12.0822L18.8154 16.7273L17.7727 16.7273L17.7727 6.27273L18.8154 6.27273L23 10.9178L23 12.0822ZM18.7231 15.1364L22.0496 11.5L18.7231 7.86364L18.7231 15.1364Z" fill="#B1B1B1"/>
<path d="M-9.71064e-07 10.9178L4.18456 6.27273L5.22727 6.27273L5.22727 16.7273L4.18456 16.7273L-1.2145e-06 12.0822L-9.71064e-07 10.9178ZM4.27686 7.86364L0.950412 11.5L4.27686 15.1364L4.27686 7.86364Z" fill="#B1B1B1"/>
<circle cx="11.5" cy="11.5" r="4.72727" stroke="#B1B1B1"/>
</svg>
