<svg width="23" height="23" viewBox="0 0 23 23" fill="none" xmlns="http://www.w3.org/2000/svg">
<path d="M20.5116 7.93307H16.2998V5.70447C16.2998 4.09594 14.9911 2.78726 13.3825 2.78726H2.91721C1.30868 2.78726 0 4.09594 0 5.70447V16.753C0 17.1836 0.349104 17.5327 0.779677 17.5327H1.34283C1.40068 19.0202 2.62835 20.2127 4.12978 20.2127C5.63121 20.2127 6.85888 19.0202 6.91673 17.5327H16.0833C16.1411 19.0202 17.3688 20.2127 18.8702 20.2127C20.3716 20.2127 21.5993 19.0202 21.6572 17.5327H22.2203C22.6509 17.5327 23 17.1836 23 16.753V10.4214C23 9.0493 21.8837 7.93307 20.5116 7.93307ZM20.5116 9.49234C21.0239 9.49234 21.4407 9.90913 21.4407 10.4214V11.9532H16.2998V9.49242H20.5116V9.49234ZM21.2528 15.9733C20.7624 15.1704 19.8779 14.6333 18.8702 14.6333C17.8626 14.6333 16.978 15.1704 16.4877 15.9733H16.2998V13.5125H21.4407V15.9733H21.2528ZM1.55935 5.70447C1.55935 4.95569 2.16843 4.34662 2.91721 4.34662H13.3826C14.1314 4.34662 14.7405 4.95569 14.7405 5.70447V15.9733H6.51233C6.02197 15.1704 5.13744 14.6333 4.12978 14.6333C3.12211 14.6333 2.23758 15.1704 1.74723 15.9733H1.55935V5.70447ZM4.12978 18.6534C3.45132 18.6534 2.89939 18.1015 2.89939 17.423C2.89939 16.7445 3.45132 16.1926 4.12978 16.1926C4.80824 16.1926 5.36016 16.7445 5.36016 17.423C5.36016 18.1015 4.80824 18.6534 4.12978 18.6534ZM18.8702 18.6534C18.1918 18.6534 17.6398 18.1015 17.6398 17.423C17.6398 16.7445 18.1918 16.1926 18.8702 16.1926C19.5487 16.1926 20.1006 16.7445 20.1006 17.423C20.1006 18.1015 19.5487 18.6534 18.8702 18.6534Z" fill="#B1B1B1"/>
</svg>
