<svg width="23" height="23" viewBox="0 0 23 23" fill="none" xmlns="http://www.w3.org/2000/svg">
<path d="M22.6981 7.1685L11.7387 1.77642C11.5881 1.70233 11.4118 1.70233 11.2613 1.77642L0.301963 7.1685C0.117109 7.25947 0 7.44757 0 7.65363V20.2414C0 20.8136 0.465567 21.2792 1.03781 21.2792H21.9621C22.5344 21.2792 23 20.8136 23 20.2414V7.65363C23 7.44757 22.8829 7.25947 22.6981 7.1685ZM18.1053 14.3454H4.89469V12.4881H18.1053V14.3454ZM4.89469 15.4267H18.1053V17.2841H4.89469V15.4267ZM18.1053 11.4068H4.89469V9.47899H18.1053V11.4068ZM4.89469 18.3654H18.1053V20.1979H4.89469V18.3654ZM21.9187 20.1979H19.1866V8.93835C19.1866 8.63972 18.9445 8.3977 18.6459 8.3977H4.35404C4.05546 8.3977 3.81339 8.63972 3.81339 8.93835V20.1979H1.08129V7.99014L11.5 2.86406L21.9187 7.99014V20.1979Z" fill="#B1B1B1"/>
</svg>
